# This file uses centimeters as units for non-parametric coordinates.

mtllib MuzzleFlash.mtl
g default
v 0.169795 0.290600 0.313633
v 0.324460 0.184174 0.351336
v 0.537159 -0.003261 0.496019
v 0.322200 -0.188100 0.350458
v 0.166037 -0.294007 0.313132
v -0.170014 -0.290531 0.313257
v -0.327435 -0.179846 0.350896
v -0.537159 0.003261 0.496019
v -0.325193 0.189555 0.350897
v -0.166714 0.284022 0.313508
v 0.000000 0.000000 0.014090
vt 0.250000 0.500000
vt 0.291667 0.500000
vt 0.333333 0.500000
vt 0.375000 0.500000
vt 0.416667 0.500000
vt 0.500000 0.500000
vt 0.541667 0.500000
vt 0.583333 0.500000
vt 0.625000 0.500000
vt 0.666667 0.500000
vt 0.500000 1.000000
vn 0.497949 0.464139 -0.732545
vn 0.497949 0.464139 -0.732545
vn 0.497949 0.464139 -0.732545
vn 0.657344 0.181329 -0.731450
vn 0.657344 0.181329 -0.731450
vn 0.657344 0.181329 -0.731450
vn 0.655530 -0.185965 -0.731913
vn 0.655530 -0.185965 -0.731913
vn 0.655530 -0.185965 -0.731913
vn 0.492718 -0.467958 -0.733652
vn 0.492718 -0.467958 -0.733652
vn 0.492718 -0.467958 -0.733652
vn -0.499920 -0.461869 -0.732637
vn -0.499920 -0.461869 -0.732637
vn -0.499920 -0.461869 -0.732637
vn -0.658274 -0.173382 -0.732540
vn -0.658274 -0.173382 -0.732540
vn -0.658274 -0.173382 -0.732540
vn -0.656777 0.176093 -0.733236
vn -0.656777 0.176093 -0.733236
vn -0.656777 0.176093 -0.733236
vn -0.468208 0.496051 -0.731242
vn -0.468208 0.496051 -0.731242
vn -0.468208 0.496051 -0.731242
s off
g pCone2
usemtl initialShadingGroup
f 1/1/1 2/2/2 11/11/3
f 2/2/4 3/3/5 11/11/6
f 3/3/7 4/4/8 11/11/9
f 4/4/10 5/5/11 11/11/12
f 6/6/13 7/7/14 11/11/15
f 7/7/16 8/8/17 11/11/18
f 8/8/19 9/9/20 11/11/21
f 9/9/22 10/10/23 11/11/24
